<svg xmlns="http://www.w3.org/2000/svg" viewBox="0 0 1200 675" width="1200" height="675" role="img" aria-label="New York City safety intelligence">
  <defs>
    <linearGradient id="bg-nyc" x1="0" y1="0" x2="1" y2="1">
      <stop offset="0%" stop-color="#f9f7f2"/>
      <stop offset="100%" stop-color="#ebe4d8"/>
    </linearGradient>
  </defs>
  <rect width="1200" height="675" fill="url(#bg-nyc)"/>
  <!-- Stylized skyline + Liberty torch hint -->
  <g fill="none" stroke="#4a6d5c" stroke-opacity="0.22" stroke-width="2" stroke-linecap="round" stroke-linejoin="round">
    <path d="M 720 520 L 720 340 L 740 320 L 760 340 L 760 520"/>
    <path d="M 780 520 L 780 280 L 800 240 L 820 280 L 820 520"/>
    <path d="M 860 520 L 860 360 L 890 300 L 920 360 L 920 520"/>
    <path d="M 960 520 L 960 380 L 980 350 L 1000 380 L 1000 520"/>
    <path d="M 1040 520 L 1040 300 L 1060 260 L 1080 300 L 1080 520"/>
    <path d="M 1090 520 L 1090 400 L 1110 360 L 1130 400 L 1130 520"/>
    <path d="M 680 200 L 680 260 M 670 260 L 690 260 M 680 200 L 675 175 L 685 175 Z"/>
  </g>
  <g stroke="#4a6d5c" stroke-opacity="0.1" stroke-width="1">
    <line x1="0" y1="540" x2="1200" y2="540"/>
    <line x1="120" y1="0" x2="120" y2="675"/>
    <line x1="1080" y1="0" x2="1080" y2="675"/>
  </g>
  <g transform="translate(96 96)">
    <circle r="24" fill="#4a6d5c" fill-opacity="0.06" stroke="#4a6d5c" stroke-opacity="0.22" stroke-width="1.25"/>
    <text x="0" y="7" text-anchor="middle" font-family="Georgia,serif" font-size="20" font-weight="600" fill="#4a6d5c" fill-opacity="0.55">i</text>
  </g>
  <g transform="translate(160 248)" fill="#4a6d5c" fill-opacity="0.14">
    <rect x="0" y="48" width="20" height="64" rx="4"/>
    <rect x="36" y="28" width="20" height="84" rx="4"/>
    <rect x="72" y="8" width="20" height="104" rx="4"/>
  </g>
  <text x="600" y="370" text-anchor="middle" font-family="Georgia, 'Times New Roman', serif" font-size="72" font-weight="600" fill="#1a1a1a">New York</text>
  <text x="600" y="440" text-anchor="middle" font-family="Georgia, 'Times New Roman', serif" font-size="72" font-weight="600" fill="#1a1a1a">City</text>
  <text x="600" y="498" text-anchor="middle" font-family="ui-sans-serif, system-ui, sans-serif" font-size="13" font-weight="700" letter-spacing="0.22em" fill="#4a6d5c" fill-opacity="0.85">SAFETY INTELLIGENCE</text>
</svg>
